<?xml version="1.0" standalone="no"?>
<!DOCTYPE svg PUBLIC "-//W3C//DTD SVG 20010904//EN"
 "http://www.w3.org/TR/2001/REC-SVG-20010904/DTD/svg10.dtd">
<svg version="1.0" xmlns="http://www.w3.org/2000/svg"
 width="512.000000pt" height="512.000000pt" viewBox="0 0 512.000000 512.000000"
 preserveAspectRatio="xMidYMid meet">

<g transform="translate(0.000000,512.000000) scale(0.100000,-0.100000)"
fill="#ffffff" stroke="none">
<path d="M2035 4834 c-469 -72 -758 -326 -868 -764 l-23 -92 -90 -23 c-213
-55 -344 -124 -477 -254 -145 -140 -240 -330 -285 -566 -15 -79 -17 -170 -17
-765 0 -755 2 -781 71 -990 74 -223 192 -369 374 -464 153 -79 306 -112 595
-127 116 -6 215 -13 222 -15 6 -1 79 -92 161 -201 164 -219 207 -258 321 -294
73 -22 136 -24 206 -5 125 33 171 74 351 309 l147 194 145 7 c364 17 610 103
794 275 157 147 247 319 302 573 5 20 14 29 34 34 428 92 686 321 797 708 51
180 56 271 52 924 -4 648 -5 670 -64 856 -124 393 -429 630 -883 686 -136 16
-1751 12 -1865 -6z m1870 -319 c185 -30 304 -85 411 -190 58 -57 80 -88 117
-165 88 -186 97 -267 97 -908 0 -642 -11 -749 -99 -927 -50 -99 -112 -171
-199 -228 -65 -43 -185 -97 -215 -97 -13 0 -16 68 -20 513 -4 394 -8 531 -20
593 -62 335 -199 562 -430 711 -112 73 -230 119 -397 156 -91 20 -131 21 -882
24 -434 2 -788 8 -788 12 0 4 8 32 19 62 86 252 261 389 565 444 111 20 1718
20 1841 0z m-927 -846 c226 -24 364 -82 483 -199 90 -89 144 -188 180 -332 24
-93 24 -94 24 -733 0 -693 -1 -706 -56 -858 -75 -208 -234 -348 -462 -406 -86
-23 -263 -41 -389 -41 -178 0 -219 -30 -420 -296 -164 -219 -188 -240 -237
-213 -14 8 -92 102 -173 209 -216 288 -226 294 -528 304 -107 3 -238 12 -291
20 -328 50 -466 208 -509 582 -8 68 -10 295 -7 719 3 531 6 630 20 687 56 229
166 382 339 469 82 41 219 79 323 88 139 13 1589 13 1703 0z"/>
<path d="M1385 2509 c-48 -14 -111 -74 -130 -124 -54 -140 47 -290 195 -289
123 0 210 89 210 214 0 141 -137 240 -275 199z"/>
<path d="M2065 2509 c-48 -14 -111 -74 -130 -124 -61 -159 76 -323 241 -286
98 22 164 105 164 206 0 146 -134 245 -275 204z"/>
<path d="M2740 2507 c-48 -15 -113 -83 -128 -133 -18 -63 -15 -105 14 -163 47
-94 145 -137 246 -107 68 19 123 74 144 142 50 166 -107 315 -276 261z"/>
</g>
</svg>
